# xmcd
#
# Track frame offsets:
#	150
#	15738
#	32766
#	50951
#	62625
#	74508
#	88901
#	104317
#	118283
#	133766
#	150258
#	167949
#	178652
#	198258
#	210226
#	223361
#	236412
#
# Disc length: 3341 seconds
#
# Revision: 2
# Processed by: cddbd v1.5.2PL0 Copyright (c) Steve Scherf et al.
# Submitted via: audiograbber 1.83.01
#
DISCID=fd0d0b11
DTITLE=Country Karaoke Classics - CKC028
DYEAR=1900
DGENRE=Karaoke
TTITLE0=Jennings, Waylon - Good Hearted Woman
TTITLE1=Jennings, Waylon - Luckenbach Texas (Back to the Basics of Love)
TTITLE2=Jennings, Waylon - I've Always Been Crazy
TTITLE3=Jennings, Waylon - Rainy Day Woman
TTITLE4=Jennings, Waylon - Only Daddy That'll Walk The Line
TTITLE5=Jennings, Waylon - Drinkin' and Dreamin'
TTITLE6=Jennings, Waylon - Bob Wills Is Still The King
TTITLE7=Jennings, Waylon - Are You Sure Hank Done It This Way
TTITLE8=Jennings, Waylon - Are You Ready For The Country
TTITLE9=Jennings, Waylon - America
TTITLE10=Jennings, Waylon - Can't You See
TTITLE11=Jennings, Waylon - Good Ol' Boys (Theme From The Dukes Of Hazzard)
TTITLE12=Jennings, Waylon - Lucille (You Won't Do Your Daddy's Will)
TTITLE13=Jennings, Waylon - Mama Don't Let Your Babies Grow Up To Be Cowboys
TTITLE14=Jennings, Waylon - I'm a Ramblin' Man
TTITLE15=Jennings, Waylon - I Got You
TTITLE16=Jennings, Waylon - Amanda
EXTD=
EXTT0=
EXTT1=
EXTT2=
EXTT3=
EXTT4=
EXTT5=
EXTT6=
EXTT7=
EXTT8=
EXTT9=
EXTT10=
EXTT11=
EXTT12=
EXTT13=
EXTT14=
EXTT15=
EXTT16=
PLAYORDER=
